<svg width="64" height="64" viewBox="0 0 100 100" fill="none" xmlns="http://www.w3.org/2000/svg">
  <defs>
    <linearGradient id="gradient" x1="0%" y1="0%" x2="100%" y2="100%">
      <stop offset="0%" stop-color="#667eea" />
      <stop offset="100%" stop-color="#764ba2" />
    </linearGradient>
  </defs>
  
  <!-- Background circle -->
  <circle cx="50" cy="50" r="48" fill="url(#gradient)" />
  
  <!-- G letter in white -->
  <path
    d="M50 25 C35 25 25 35 25 50 C25 65 35 75 50 75 C60 75 68 69 72 60 L60 60 C58 63 54 66 50 66 C41 66 34 59 34 50 C34 41 41 34 50 34 C54 34 58 36 61 39 L69 31 C64 27 57 25 50 25 Z M60 50 L75 50 L75 60 L60 60 Z"
    fill="white"
  />
  
  <!-- Three node dots -->
  <circle cx="30" cy="30" r="3" fill="white" opacity="0.9" />
  <circle cx="70" cy="30" r="3" fill="white" opacity="0.9" />
  <circle cx="50" cy="22" r="3" fill="white" opacity="0.9" />
  
  <!-- Connection lines -->
  <line x1="30" y1="30" x2="50" y2="22" stroke="white" stroke-width="1" opacity="0.5" />
  <line x1="50" y1="22" x2="70" y2="30" stroke="white" stroke-width="1" opacity="0.5" />
</svg>
